  0
SECTION
  2
BLOCKS
  0
ENDSEC
  0
SECTION
  2
ENTITIES
  0
LINE
  8
0
 10
200.5
 20
113.043
 11
206.5
 21
113.043
  0
LINE
  8
0
 10
206.5
 20
113.043
 11
206.5
 21
122.043
  0
LINE
  8
0
 10
206.5
 20
122.043
 11
200.5
 21
122.043
  0
LINE
  8
0
 10
200.5
 20
122.043
 11
200.5
 21
125.043
  0
LINE
  8
0
 10
200.5
 20
125.043
 11
88.5
 21
125.043
  0
LINE
  8
0
 10
88.5
 20
125.043
 11
88.5
 21
122.043
  0
LINE
  8
0
 10
88.5
 20
122.043
 11
82.5
 21
122.043
  0
LINE
  8
0
 10
82.5
 20
122.043
 11
82.5
 21
113.043
  0
LINE
  8
0
 10
82.5
 20
113.043
 11
88.5
 21
113.043
  0
LINE
  8
0
 10
88.5
 20
113.043
 11
88.5
 21
110.043
  0
LINE
  8
0
 10
88.5
 20
110.043
 11
200.5
 21
110.043
  0
LINE
  8
0
 10
200.5
 20
110.043
 11
200.5
 21
113.043
  0
LINE
  8
0
 10
84.8
 20
116.493
 11
84.8
 21
118.593
  0
LINE
  8
0
 10
84.8
 20
118.593
 11
87.32
 21
118.593
  0
LINE
  8
0
 10
87.32
 20
118.593
 11
87.32
 21
116.493
  0
LINE
  8
0
 10
87.32
 20
116.493
 11
84.8
 21
116.493
  0
LINE
  8
0
 10
201.68
 20
116.493
 11
201.68
 21
118.593
  0
LINE
  8
0
 10
201.68
 20
118.593
 11
204.2
 21
118.593
  0
LINE
  8
0
 10
204.2
 20
118.593
 11
204.2
 21
116.493
  0
LINE
  8
0
 10
204.2
 20
116.493
 11
201.68
 21
116.493
  0
LINE
  8
0
 10
13.5
 20
6.5
 11
46.5
 21
6.5
  0
LINE
  8
0
 10
46.5
 20
6.5
 11
46.5
 21
0.5
  0
LINE
  8
0
 10
46.5
 20
0.5
 11
55.5
 21
0.5
  0
LINE
  8
0
 10
55.5
 20
0.5
 11
55.5
 21
6.5
  0
LINE
  8
0
 10
55.5
 20
6.5
 11
80
 21
6.5
  0
LINE
  8
0
 10
80
 20
6.5
 11
80
 21
118.5
  0
LINE
  8
0
 10
80
 20
118.5
 11
55.5
 21
118.5
  0
LINE
  8
0
 10
55.5
 20
118.5
 11
55.5
 21
124.5
  0
LINE
  8
0
 10
55.5
 20
124.5
 11
46.5
 21
124.5
  0
LINE
  8
0
 10
46.5
 20
124.5
 11
46.5
 21
118.5
  0
LINE
  8
0
 10
46.5
 20
118.5
 11
13.5
 21
118.5
  0
LINE
  8
0
 10
13.5
 20
118.5
 11
13.5
 21
124.5
  0
LINE
  8
0
 10
13.5
 20
124.5
 11
4.5
 21
124.5
  0
LINE
  8
0
 10
4.5
 20
124.5
 11
4.5
 21
118.5
  0
LINE
  8
0
 10
4.5
 20
118.5
 11
0
 21
118.5
  0
LINE
  8
0
 10
0
 20
118.5
 11
0
 21
6.5
  0
LINE
  8
0
 10
0
 20
6.5
 11
4.5
 21
6.5
  0
LINE
  8
0
 10
4.5
 20
6.5
 11
4.5
 21
0.5
  0
LINE
  8
0
 10
4.5
 20
0.5
 11
13.5
 21
0.5
  0
LINE
  8
0
 10
13.5
 20
0.5
 11
13.5
 21
6.5
  0
LINE
  8
0
 10
7.95
 20
119.68
 11
7.95
 21
122.2
  0
LINE
  8
0
 10
7.95
 20
122.2
 11
10.05
 21
122.2
  0
LINE
  8
0
 10
10.05
 20
122.2
 11
10.05
 21
119.68
  0
LINE
  8
0
 10
10.05
 20
119.68
 11
7.95
 21
119.68
  0
LINE
  8
0
 10
49.95
 20
119.68
 11
49.95
 21
122.2
  0
LINE
  8
0
 10
49.95
 20
122.2
 11
52.05
 21
122.2
  0
LINE
  8
0
 10
52.05
 20
122.2
 11
52.05
 21
119.68
  0
LINE
  8
0
 10
52.05
 20
119.68
 11
49.95
 21
119.68
  0
LINE
  8
0
 10
49.95
 20
2.79999
 11
49.95
 21
5.31999
  0
LINE
  8
0
 10
49.95
 20
5.31999
 11
52.05
 21
5.31999
  0
LINE
  8
0
 10
52.05
 20
5.31999
 11
52.05
 21
2.79999
  0
LINE
  8
0
 10
52.05
 20
2.79999
 11
49.95
 21
2.79999
  0
LINE
  8
0
 10
7.95
 20
2.79999
 11
7.95
 21
5.31999
  0
LINE
  8
0
 10
7.95
 20
5.31999
 11
10.05
 21
5.31999
  0
LINE
  8
0
 10
10.05
 20
5.31999
 11
10.05
 21
2.79999
  0
LINE
  8
0
 10
10.05
 20
2.79999
 11
7.95
 21
2.79999
  0
LINE
  8
0
 10
243.701
 20
101.611
 11
239.111
 21
105.475
  0
LINE
  8
0
 10
239.111
 20
105.475
 11
241.273
 21
108.043
  0
LINE
  8
0
 10
241.273
 20
108.043
 11
94.8702
 21
108.043
  0
LINE
  8
0
 10
94.8702
 20
108.043
 11
92.7082
 21
105.475
  0
LINE
  8
0
 10
92.7082
 20
105.475
 11
88.1181
 21
109.339
  0
LINE
  8
0
 10
88.1181
 20
109.339
 11
82.322
 21
102.454
  0
LINE
  8
0
 10
82.322
 20
102.454
 11
86.912
 21
98.5899
  0
LINE
  8
0
 10
86.912
 20
98.5899
 11
84.75
 21
96.0216
  0
LINE
  8
0
 10
84.75
 20
96.0216
 11
231.153
 21
96.0216
  0
LINE
  8
0
 10
231.153
 20
96.0216
 11
233.315
 21
98.5899
  0
LINE
  8
0
 10
233.315
 20
98.5899
 11
237.905
 21
94.7258
  0
LINE
  8
0
 10
237.905
 20
94.7258
 11
243.701
 21
101.611
  0
LINE
  8
0
 10
86.3034
 20
103.612
 11
87.6558
 21
105.219
  0
LINE
  8
0
 10
87.6558
 20
105.219
 11
89.5836
 21
103.596
  0
LINE
  8
0
 10
89.5836
 20
103.596
 11
88.2312
 21
101.989
  0
LINE
  8
0
 10
88.2312
 20
101.989
 11
86.3034
 21
103.612
  0
LINE
  8
0
 10
236.439
 20
100.469
 11
237.792
 21
102.076
  0
LINE
  8
0
 10
237.792
 20
102.076
 11
239.72
 21
100.453
  0
LINE
  8
0
 10
239.72
 20
100.453
 11
238.367
 21
98.8463
  0
LINE
  8
0
 10
238.367
 20
98.8463
 11
236.439
 21
100.469
  0
LINE
  8
0
 10
243.701
 20
87.5893
 11
239.111
 21
91.4534
  0
LINE
  8
0
 10
239.111
 20
91.4534
 11
241.273
 21
94.0216
  0
LINE
  8
0
 10
241.273
 20
94.0216
 11
94.8702
 21
94.0216
  0
LINE
  8
0
 10
94.8702
 20
94.0216
 11
92.7082
 21
91.4534
  0
LINE
  8
0
 10
92.7082
 20
91.4534
 11
88.1181
 21
95.3175
  0
LINE
  8
0
 10
88.1181
 20
95.3175
 11
82.322
 21
88.4323
  0
LINE
  8
0
 10
82.322
 20
88.4323
 11
86.912
 21
84.5683
  0
LINE
  8
0
 10
86.912
 20
84.5683
 11
84.75
 21
82
  0
LINE
  8
0
 10
84.75
 20
82
 11
231.153
 21
82
  0
LINE
  8
0
 10
231.153
 20
82
 11
233.315
 21
84.5683
  0
LINE
  8
0
 10
233.315
 20
84.5683
 11
237.905
 21
80.7042
  0
LINE
  8
0
 10
237.905
 20
80.7042
 11
243.701
 21
87.5893
  0
LINE
  8
0
 10
86.3034
 20
89.5904
 11
87.6558
 21
91.1969
  0
LINE
  8
0
 10
87.6558
 20
91.1969
 11
89.5836
 21
89.574
  0
LINE
  8
0
 10
89.5836
 20
89.574
 11
88.2312
 21
87.9675
  0
LINE
  8
0
 10
88.2312
 20
87.9675
 11
86.3034
 21
89.5904
  0
LINE
  8
0
 10
236.439
 20
86.4476
 11
237.792
 21
88.0541
  0
LINE
  8
0
 10
237.792
 20
88.0541
 11
239.72
 21
86.4312
  0
LINE
  8
0
 10
239.72
 20
86.4312
 11
238.367
 21
84.8247
  0
LINE
  8
0
 10
238.367
 20
84.8247
 11
236.439
 21
86.4476
  0
LINE
  8
0
 10
219.04
 20
80
 11
199.04
 21
80
  0
LINE
  8
0
 10
199.04
 20
80
 11
199.04
 21
60
  0
LINE
  8
0
 10
199.04
 20
60
 11
104
 21
60
  0
LINE
  8
0
 10
104
 20
60
 11
104
 21
42
  0
LINE
  8
0
 10
104
 20
42
 11
199.04
 21
42
  0
LINE
  8
0
 10
199.04
 20
42
 11
199.04
 21
18
  0
LINE
  8
0
 10
199.04
 20
18
 11
104
 21
18
  0
LINE
  8
0
 10
104
 20
18
 11
104
 21
0
  0
LINE
  8
0
 10
104
 20
0
 11
219.04
 21
0
  0
LINE
  8
0
 10
219.04
 20
0
 11
219.04
 21
80
  0
LINE
  8
0
 10
189.844
 20
47.4171
 11
192.2
 21
56.207
  0
LINE
  8
0
 10
192.2
 20
56.207
 11
194.325
 21
55.6376
  0
LINE
  8
0
 10
194.325
 20
55.6376
 11
191.97
 21
46.8476
  0
LINE
  8
0
 10
191.97
 20
46.8476
 11
189.844
 21
47.4171
  0
LINE
  8
0
 10
106.89
 20
46.45
 11
106.89
 21
55.55
  0
LINE
  8
0
 10
106.89
 20
55.55
 11
109.09
 21
55.55
  0
LINE
  8
0
 10
109.09
 20
55.55
 11
109.09
 21
46.45
  0
LINE
  8
0
 10
109.09
 20
46.45
 11
106.89
 21
46.45
  0
LINE
  8
0
 10
106.89
 20
4.45
 11
106.89
 21
13.55
  0
LINE
  8
0
 10
106.89
 20
13.55
 11
109.09
 21
13.55
  0
LINE
  8
0
 10
109.09
 20
13.55
 11
109.09
 21
4.45
  0
LINE
  8
0
 10
109.09
 20
4.45
 11
106.89
 21
4.45
  0
LINE
  8
0
 10
206.633
 20
8.95
 11
206.633
 21
11.15
  0
LINE
  8
0
 10
206.633
 20
11.15
 11
215.733
 21
11.15
  0
LINE
  8
0
 10
215.733
 20
11.15
 11
215.733
 21
8.95
  0
LINE
  8
0
 10
215.733
 20
8.95
 11
206.633
 21
8.95
  0
LINE
  8
0
 10
112.347
 20
6.84999
 11
112.347
 21
9.04999
  0
LINE
  8
0
 10
112.347
 20
9.04999
 11
121.447
 21
9.04999
  0
LINE
  8
0
 10
121.447
 20
9.04999
 11
121.447
 21
6.84999
  0
LINE
  8
0
 10
121.447
 20
6.84999
 11
112.347
 21
6.84999
  0
LINE
  8
0
 10
102
 20
20
 11
197.04
 21
20
  0
LINE
  8
0
 10
197.04
 20
20
 11
197.04
 21
38
  0
LINE
  8
0
 10
197.04
 20
38
 11
102
 21
38
  0
LINE
  8
0
 10
102
 20
38
 11
102
 21
62
  0
LINE
  8
0
 10
102
 20
62
 11
197.04
 21
62
  0
LINE
  8
0
 10
197.04
 20
62
 11
197.04
 21
80
  0
LINE
  8
0
 10
197.04
 20
80
 11
82
 21
80
  0
LINE
  8
0
 10
82
 20
80
 11
82
 21
0
  0
LINE
  8
0
 10
82
 20
0
 11
102
 21
0
  0
LINE
  8
0
 10
102
 20
0
 11
102
 21
20
  0
LINE
  8
0
 10
191.95
 20
66.45
 11
191.95
 21
75.55
  0
LINE
  8
0
 10
191.95
 20
75.55
 11
194.15
 21
75.55
  0
LINE
  8
0
 10
194.15
 20
75.55
 11
194.15
 21
66.45
  0
LINE
  8
0
 10
194.15
 20
66.45
 11
191.95
 21
66.45
  0
LINE
  8
0
 10
85.3071
 20
70.95
 11
85.3071
 21
73.15
  0
LINE
  8
0
 10
85.3071
 20
73.15
 11
94.4071
 21
73.15
  0
LINE
  8
0
 10
94.4071
 20
73.15
 11
94.4071
 21
70.95
  0
LINE
  8
0
 10
94.4071
 20
70.95
 11
85.3071
 21
70.95
  0
LINE
  8
0
 10
179.593
 20
68.85
 11
179.593
 21
71.05
  0
LINE
  8
0
 10
179.593
 20
71.05
 11
188.693
 21
71.05
  0
LINE
  8
0
 10
188.693
 20
71.05
 11
188.693
 21
68.85
  0
LINE
  8
0
 10
188.693
 20
68.85
 11
179.593
 21
68.85
  0
LINE
  8
0
 10
191.95
 20
24.45
 11
191.95
 21
33.55
  0
LINE
  8
0
 10
191.95
 20
33.55
 11
194.15
 21
33.55
  0
LINE
  8
0
 10
194.15
 20
33.55
 11
194.15
 21
24.45
  0
LINE
  8
0
 10
194.15
 20
24.45
 11
191.95
 21
24.45
  0
LINE
  8
0
 10
106.715
 20
24.3624
 11
109.07
 21
33.1523
  0
LINE
  8
0
 10
109.07
 20
33.1523
 11
111.196
 21
32.5829
  0
LINE
  8
0
 10
111.196
 20
32.5829
 11
108.84
 21
23.793
  0
LINE
  8
0
 10
108.84
 20
23.793
 11
106.715
 21
24.3624
  0
LINE
  8
0
 10
243
 20
45.2
 11
243
 21
42.68
  0
LINE
  8
0
 10
243
 20
42.68
 11
248
 21
42.68
  0
LINE
  8
0
 10
248
 20
42.68
 11
243
 21
45.2
  0
LINE
  8
0
 10
243
 20
40.68
 11
243
 21
38.16
  0
LINE
  8
0
 10
243
 20
38.16
 11
248
 21
38.16
  0
LINE
  8
0
 10
248
 20
38.16
 11
243
 21
40.68
  0
LINE
  8
0
 10
243
 20
36.16
 11
243
 21
33.64
  0
LINE
  8
0
 10
243
 20
33.64
 11
248
 21
33.64
  0
LINE
  8
0
 10
248
 20
33.64
 11
243
 21
36.16
  0
LINE
  8
0
 10
243
 20
31.64
 11
243
 21
29.12
  0
LINE
  8
0
 10
243
 20
29.12
 11
248
 21
29.12
  0
LINE
  8
0
 10
248
 20
29.12
 11
243
 21
31.64
  0
LINE
  8
0
 10
243
 20
27.12
 11
243
 21
24.6
  0
LINE
  8
0
 10
243
 20
24.6
 11
248
 21
24.6
  0
LINE
  8
0
 10
248
 20
24.6
 11
243
 21
27.12
  0
LINE
  8
0
 10
243
 20
22.6
 11
243
 21
20.08
  0
LINE
  8
0
 10
243
 20
20.08
 11
248
 21
20.08
  0
LINE
  8
0
 10
248
 20
20.08
 11
243
 21
22.6
  0
LINE
  8
0
 10
243
 20
18.08
 11
243
 21
15.56
  0
LINE
  8
0
 10
243
 20
15.56
 11
248
 21
15.56
  0
LINE
  8
0
 10
248
 20
15.56
 11
243
 21
18.08
  0
LINE
  8
0
 10
243
 20
13.56
 11
243
 21
11.04
  0
LINE
  8
0
 10
243
 20
11.04
 11
248
 21
11.04
  0
LINE
  8
0
 10
248
 20
11.04
 11
243
 21
13.56
  0
LINE
  8
0
 10
243
 20
9.03998
 11
243
 21
6.51999
  0
LINE
  8
0
 10
243
 20
6.51999
 11
248
 21
6.51999
  0
LINE
  8
0
 10
248
 20
6.51999
 11
243
 21
9.03998
  0
LINE
  8
0
 10
243
 20
4.51999
 11
243
 21
2
  0
LINE
  8
0
 10
243
 20
2
 11
248
 21
2
  0
LINE
  8
0
 10
248
 20
2
 11
243
 21
4.51999
  0
ENDSEC
  0
SECTION
  2
OBJECTS
  0
DICTIONARY
  0
ENDSEC
  0
EOF
