  0
SECTION
  2
HEADER
  9
$ACADVER
  1
AC1009
  9
$DWGCODEPAGE
  3
ansi_1252
  9
$INSBASE
 10
0.0
 20
0.0
 30
0.0
  9
$EXTMIN
 10
0.0
 20
0.0
 30
0.0
  9
$EXTMAX
 10
2500.0
 20
1250.43
 30
0.0
  9
$LIMMIN
 10
0.0
 20
0.0
  9
$LIMMAX
 10
12.0
 20
9.0
  9
$ORTHOMODE
 70
     0
  9
$REGENMODE
 70
     1
  9
$FILLMODE
 70
     1
  9
$QTEXTMODE
 70
     0
  9
$MIRRTEXT
 70
     1
  9
$DRAGMODE
 70
     2
  9
$LTSCALE
 40
1.0
  9
$OSMODE
 70
    37
  9
$ATTMODE
 70
     1
  9
$TEXTSIZE
 40
0.2
  9
$TRACEWID
 40
0.05
  9
$TEXTSTYLE
  7
STANDARD
  9
$CLAYER
  8
0
  9
$CELTYPE
  6
BYLAYER
  9
$CECOLOR
 62
   256
  9
$DIMSCALE
 40
1.0
  9
$DIMASZ
 40
0.18
  9
$DIMEXO
 40
0.0625
  9
$DIMDLI
 40
0.38
  9
$DIMRND
 40
0.0
  9
$DIMDLE
 40
0.0
  9
$DIMEXE
 40
0.18
  9
$DIMTP
 40
0.0
  9
$DIMTM
 40
0.0
  9
$DIMTXT
 40
0.18
  9
$DIMCEN
 40
0.09
  9
$DIMTSZ
 40
0.0
  9
$DIMTOL
 70
     0
  9
$DIMLIM
 70
     0
  9
$DIMTIH
 70
     1
  9
$DIMTOH
 70
     1
  9
$DIMSE1
 70
     0
  9
$DIMSE2
 70
     0
  9
$DIMTAD
 70
     0
  9
$DIMZIN
 70
     0
  9
$DIMBLK
  1

  9
$DIMASO
 70
     1
  9
$DIMSHO
 70
     1
  9
$DIMPOST
  1

  9
$DIMAPOST
  1

  9
$DIMALT
 70
     0
  9
$DIMALTD
 70
     2
  9
$DIMALTF
 40
25.4
  9
$DIMLFAC
 40
1.0
  9
$DIMTOFL
 70
     0
  9
$DIMTVP
 40
0.0
  9
$DIMTIX
 70
     0
  9
$DIMSOXD
 70
     0
  9
$DIMSAH
 70
     0
  9
$DIMBLK1
  1

  9
$DIMBLK2
  1

  9
$DIMSTYLE
  2
STANDARD
  9
$DIMCLRD
 70
     0
  9
$DIMCLRE
 70
     0
  9
$DIMCLRT
 70
     0
  9
$DIMTFAC
 40
1.0
  9
$DIMGAP
 40
0.09
  9
$LUNITS
 70
     2
  9
$LUPREC
 70
     4
  9
$SKETCHINC
 40
0.1
  9
$FILLETRAD
 40
0.5
  9
$AUNITS
 70
     0
  9
$AUPREC
 70
     0
  9
$MENU
  1
.
  9
$ELEVATION
 40
0.0
  9
$PELEVATION
 40
0.0
  9
$THICKNESS
 40
0.0
  9
$LIMCHECK
 70
     0
  9
$CHAMFERA
 40
0.5
  9
$CHAMFERB
 40
0.5
  9
$SKPOLY
 70
     0
  9
$TDCREATE
 40
2454910.5
  9
$TDUPDATE
 40
2457554.57619132
  9
$TDINDWG
 40
0.0000000116
  9
$TDUSRTIMER
 40
0.0000000116
  9
$USRTIMER
 70
     1
  9
$ANGBASE
 50
0.0
  9
$ANGDIR
 70
     0
  9
$PDMODE
 70
     0
  9
$PDSIZE
 40
0.0
  9
$PLINEWID
 40
0.0
  9
$COORDS
 70
     1
  9
$SPLFRAME
 70
     0
  9
$SPLINETYPE
 70
     6
  9
$SPLINESEGS
 70
     8
  9
$ATTDIA
 70
     0
  9
$ATTREQ
 70
     1
  9
$HANDLING
 70
     1
  9
$HANDSEED
  5
1F0
  9
$SURFTAB1
 70
     6
  9
$SURFTAB2
 70
     6
  9
$SURFTYPE
 70
     6
  9
$SURFU
 70
     6
  9
$SURFV
 70
     6
  9
$UCSNAME
  2

  9
$UCSORG
 10
0.0
 20
0.0
 30
0.0
  9
$UCSXDIR
 10
1.0
 20
0.0
 30
0.0
  9
$UCSYDIR
 10
0.0
 20
1.0
 30
0.0
  9
$PUCSNAME
  2

  9
$PUCSORG
 10
0.0
 20
0.0
 30
0.0
  9
$PUCSXDIR
 10
1.0
 20
0.0
 30
0.0
  9
$PUCSYDIR
 10
0.0
 20
1.0
 30
0.0
  9
$USERI1
 70
     0
  9
$USERI2
 70
     0
  9
$USERI3
 70
     0
  9
$USERI4
 70
     0
  9
$USERI5
 70
     0
  9
$USERR1
 40
0.0
  9
$USERR2
 40
0.0
  9
$USERR3
 40
0.0
  9
$USERR4
 40
0.0
  9
$USERR5
 40
0.0
  9
$WORLDVIEW
 70
     1
  9
$SHADEDGE
 70
     3
  9
$SHADEDIF
 70
    70
  9
$TILEMODE
 70
     1
  9
$MAXACTVP
 70
    64
  9
$PLIMCHECK
 70
     0
  9
$PEXTMIN
 10
1.000000000000000E+20
 20
1.000000000000000E+20
 30
1.000000000000000E+20
  9
$PEXTMAX
 10
-1.000000000000000E+20
 20
-1.000000000000000E+20
 30
-1.000000000000000E+20
  9
$PLIMMIN
 10
0.0
 20
0.0
  9
$PLIMMAX
 10
12.0
 20
9.0
  9
$UNITMODE
 70
     0
  9
$VISRETAIN
 70
     1
  9
$PLINEGEN
 70
     0
  9
$PSLTSCALE
 70
     1
  0
ENDSEC
  0
SECTION
  2
TABLES
  0
TABLE
  2
VPORT
 70
     1
  0
VPORT
  2
*ACTIVE
 70
     0
 10
0.0
 20
0.0
 11
1.0
 21
1.0
 12
10.42990654205607
 22
4.5
 13
0.0
 23
0.0
 14
0.5
 24
0.5
 15
0.5
 25
0.5
 16
0.0
 26
0.0
 36
1.0
 17
0.0
 27
0.0
 37
0.0
 40
9.0
 41
1.972972972850329
 42
50.0
 43
0.0
 44
0.0
 50
0.0
 51
0.0
 71
     0
 72
   100
 73
     1
 74
     3
 75
     0
 76
     0
 77
     0
 78
     0
  0
ENDTAB
  0
TABLE
  2
LTYPE
 70
     2
  0
LTYPE
  2
CONTINUOUS
 70
     0
  3
Solid line
 72
    65
 73
     0
 40
0.0
  0
LTYPE
  2
CONTINUOUS2
 70
     0
  3
Solid Line
 72
    65
 73
     0
 40
0.0
  0
ENDTAB
  0
TABLE
  2
LAYER
 70
     4
  0
LAYER
  2
0
 70
     0
 62
     7
  6
CONTINUOUS
  0
LAYER
  2
CUT-INSIDE-21MM
 70
     0
 62
   216
  6
CONTINUOUS
  0
LAYER
  2
CUT-OUTSIDE-21MM
 70
     0
 62
   142
  6
CONTINUOUS
  0
LAYER
  2
STANDARD
 70
     0
 62
    18
  6
CONTINUOUS
  0
ENDTAB
  0
TABLE
  2
STYLE
 70
     1
  0
STYLE
  2
STANDARD
 70
     0
 40
0.0
 41
1.0
 50
0.0
 71
     0
 42
0.2
  3
txt
  4

  0
ENDTAB
  0
TABLE
  2
VIEW
 70
     0
  0
ENDTAB
  0
TABLE
  2
UCS
 70
     0
  0
ENDTAB
  0
TABLE
  2
APPID
 70
     1
  0
APPID
  2
ACAD
 70
     0
  0
ENDTAB
  0
TABLE
  2
DIMSTYLE
 70
     1
  0
DIMSTYLE
  2
STANDARD
 70
     0
  3

  4

  5

  6

  7

 40
1.0
 41
0.18
 42
0.0625
 43
0.38
 44
0.18
 45
0.0
 46
0.0
 47
0.0
 48
0.0
140
0.18
141
0.09
142
0.0
143
25.4
144
1.0
145
0.0
146
1.0
147
0.09
 71
     0
 72
     0
 73
     1
 74
     1
 75
     0
 76
     0
 77
     0
 78
     0
170
     0
171
     2
172
     0
173
     0
174
     0
175
     0
176
     0
177
     0
178
     0
  0
ENDTAB
  0
ENDSEC
  0
SECTION
  2
BLOCKS
  0
BLOCK
  8
0
  2
$MODEL_SPACE
 70
     0
 10
0.0
 20
0.0
 30
0.0
  3
$MODEL_SPACE
  1

  0
ENDBLK
  5
21
  8
0
  0
BLOCK
 67
     1
  8
0
  2
$PAPER_SPACE
 70
     0
 10
0.0
 20
0.0
 30
0.0
  3
$PAPER_SPACE
  1

  0
ENDBLK
  5
1D
 67
     1
  8
0
  0
ENDSEC
  0
SECTION
  2
ENTITIES
  0
POLYLINE
  5
3D
  8
CUT-INSIDE-21MM
 66
     1
 10
0.0
 20
0.0
 30
0.0
 70
     1
  0
VERTEX
  5
67
  8
CUT-INSIDE-21MM
 10
2042.625701239797
 20
560.9353932040718
 30
0.0
  0
VERTEX
  5
68
  8
CUT-INSIDE-21MM
 10
2055.406813189351
 20
557.5106566656827
 30
0.0
 42
-1.0
  0
VERTEX
  5
69
  8
CUT-INSIDE-21MM
 10
2058.506831305056
 20
552.1414260233345
 30
0.0
  0
VERTEX
  5
6A
  8
CUT-INSIDE-21MM
 10
2037.225859398447
 20
472.7105372508965
 30
0.0
 42
-1.0
  0
VERTEX
  5
6B
  8
CUT-INSIDE-21MM
 10
2031.856766292784
 20
469.6103347017306
 30
0.0
  0
VERTEX
  5
6C
  8
CUT-INSIDE-21MM
 10
2019.066744700454
 20
473.0364481997701
 30
0.0
 42
-1.0
  0
VERTEX
  5
6D
  8
CUT-INSIDE-21MM
 10
2015.966538127157
 20
478.4062239950896
 30
0.0
  0
VERTEX
  5
6E
  8
CUT-INSIDE-21MM
 10
2037.256419676541
 20
557.8357358078772
 30
0.0
 42
-1.0
  0
SEQEND
  5
6F
  8
CUT-INSIDE-21MM
  0
POLYLINE
  5
3E
  8
CUT-INSIDE-21MM
 66
     1
 10
0.0
 20
0.0
 30
0.0
 70
     1
  0
VERTEX
  5
70
  8
CUT-INSIDE-21MM
 10
1189.675412314858
 20
555.5
 30
0.0
  0
VERTEX
  5
71
  8
CUT-INSIDE-21MM
 10
1202.907288228144
 20
555.5
 30
0.0
 42
-1.0
  0
VERTEX
  5
72
  8
CUT-INSIDE-21MM
 10
1207.291350271501
 20
551.1159379566434
 30
0.0
  0
VERTEX
  5
73
  8
CUT-INSIDE-21MM
 10
1207.291350271501
 20
468.8840620433566
 30
0.0
 42
-1.0
  0
VERTEX
  5
74
  8
CUT-INSIDE-21MM
 10
1202.907288228144
 20
464.5
 30
0.0
  0
VERTEX
  5
75
  8
CUT-INSIDE-21MM
 10
1189.675412314858
 20
464.5
 30
0.0
 42
-1.0
  0
VERTEX
  5
76
  8
CUT-INSIDE-21MM
 10
1185.291350271501
 20
468.8840620433566
 30
0.0
  0
VERTEX
  5
77
  8
CUT-INSIDE-21MM
 10
1185.291350271501
 20
551.1159379566434
 30
0.0
 42
-1.0
  0
SEQEND
  5
78
  8
CUT-INSIDE-21MM
  0
POLYLINE
  5
3F
  8
CUT-INSIDE-21MM
 66
     1
 10
0.0
 20
0.0
 30
0.0
 70
     1
  0
VERTEX
  5
79
  8
CUT-INSIDE-21MM
 10
1189.675412314858
 20
135.5
 30
0.0
  0
VERTEX
  5
7A
  8
CUT-INSIDE-21MM
 10
1202.907288228144
 20
135.5
 30
0.0
 42
-1.0
  0
VERTEX
  5
7B
  8
CUT-INSIDE-21MM
 10
1207.291350271501
 20
131.1159379566434
 30
0.0
  0
VERTEX
  5
7C
  8
CUT-INSIDE-21MM
 10
1207.291350271501
 20
48.88406204335659
 30
0.0
 42
-1.0
  0
VERTEX
  5
7D
  8
CUT-INSIDE-21MM
 10
1202.907288228144
 20
44.5
 30
0.0
  0
VERTEX
  5
7E
  8
CUT-INSIDE-21MM
 10
1189.675412314858
 20
44.5
 30
0.0
 42
-1.0
  0
VERTEX
  5
7F
  8
CUT-INSIDE-21MM
 10
1185.291350271501
 20
48.88406204335659
 30
0.0
  0
VERTEX
  5
80
  8
CUT-INSIDE-21MM
 10
1185.291350271501
 20
131.1159379566434
 30
0.0
 42
-1.0
  0
SEQEND
  5
81
  8
CUT-INSIDE-21MM
  0
POLYLINE
  5
40
  8
CUT-INSIDE-21MM
 66
     1
 10
0.0
 20
0.0
 30
0.0
 70
     1
  0
VERTEX
  5
82
  8
CUT-INSIDE-21MM
 10
1244.245412314858
 20
90.4999
 30
0.0
  0
VERTEX
  5
83
  8
CUT-INSIDE-21MM
 10
1326.477288228144
 20
90.4999
 30
0.0
 42
-1.0
  0
VERTEX
  5
84
  8
CUT-INSIDE-21MM
 10
1330.861350271501
 20
86.1158379566434
 30
0.0
  0
VERTEX
  5
85
  8
CUT-INSIDE-21MM
 10
1330.861350271501
 20
72.88396204335659
 30
0.0
 42
-1.0
  0
VERTEX
  5
86
  8
CUT-INSIDE-21MM
 10
1326.477288228144
 20
68.4999
 30
0.0
  0
VERTEX
  5
87
  8
CUT-INSIDE-21MM
 10
1244.245412314858
 20
68.4999
 30
0.0
 42
-1.0
  0
VERTEX
  5
88
  8
CUT-INSIDE-21MM
 10
1239.861350271501
 20
72.88396204335659
 30
0.0
  0
VERTEX
  5
89
  8
CUT-INSIDE-21MM
 10
1239.861350271501
 20
86.1158379566434
 30
0.0
 42
-1.0
  0
SEQEND
  5
8A
  8
CUT-INSIDE-21MM
  0
POLYLINE
  5
41
  8
CUT-INSIDE-21MM
 66
     1
 10
0.0
 20
0.0
 30
0.0
 70
     1
  0
VERTEX
  5
8B
  8
CUT-INSIDE-21MM
 10
2187.105412314856
 20
111.5
 30
0.0
  0
VERTEX
  5
8C
  8
CUT-INSIDE-21MM
 10
2269.337288228143
 20
111.5
 30
0.0
 42
-1.0
  0
VERTEX
  5
8D
  8
CUT-INSIDE-21MM
 10
2273.7213502715
 20
107.1159379566434
 30
0.0
  0
VERTEX
  5
8E
  8
CUT-INSIDE-21MM
 10
2273.7213502715
 20
93.8840620433566
 30
0.0
 42
-1.0
  0
VERTEX
  5
8F
  8
CUT-INSIDE-21MM
 10
2269.337288228143
 20
89.5
 30
0.0
  0
VERTEX
  5
90
  8
CUT-INSIDE-21MM
 10
2187.105412314856
 20
89.5
 30
0.0
 42
-1.0
  0
VERTEX
  5
91
  8
CUT-INSIDE-21MM
 10
2182.7213502715
 20
93.8840620433566
 30
0.0
  0
VERTEX
  5
92
  8
CUT-INSIDE-21MM
 10
2182.7213502715
 20
107.1159379566434
 30
0.0
 42
-1.0
  0
SEQEND
  5
93
  8
CUT-INSIDE-21MM
  0
POLYLINE
  5
42
  8
CUT-INSIDE-21MM
 66
     1
 10
0.0
 20
0.0
 30
0.0
 70
     1
  0
VERTEX
  5
94
  8
CUT-INSIDE-21MM
 10
536.2149926743213
 20
53.1999
 30
0.0
  0
VERTEX
  5
95
  8
CUT-INSIDE-21MM
 10
548.446868587608
 20
53.1999
 30
0.0
 42
-1.0
  0
VERTEX
  5
96
  8
CUT-INSIDE-21MM
 10
552.8309306309646
 20
48.81583795664341
 30
0.0
  0
VERTEX
  5
97
  8
CUT-INSIDE-21MM
 10
552.8309306309646
 20
32.3839620433566
 30
0.0
 42
-1.0
  0
VERTEX
  5
98
  8
CUT-INSIDE-21MM
 10
548.446868587608
 20
27.9999
 30
0.0
  0
VERTEX
  5
99
  8
CUT-INSIDE-21MM
 10
536.2149926743213
 20
27.9999
 30
0.0
 42
-1.0
  0
VERTEX
  5
9A
  8
CUT-INSIDE-21MM
 10
531.8309306309646
 20
32.3839620433566
 30
0.0
  0
VERTEX
  5
9B
  8
CUT-INSIDE-21MM
 10
531.8309306309646
 20
48.81583795664341
 30
0.0
 42
-1.0
  0
SEQEND
  5
9C
  8
CUT-INSIDE-21MM
  0
POLYLINE
  5
43
  8
CUT-INSIDE-21MM
 66
     1
 10
0.0
 20
0.0
 30
0.0
 70
     1
  0
VERTEX
  5
9D
  8
CUT-INSIDE-21MM
 10
116.2149926743212
 20
53.1999
 30
0.0
  0
VERTEX
  5
9E
  8
CUT-INSIDE-21MM
 10
128.446868587608
 20
53.1999
 30
0.0
 42
-1.0
  0
VERTEX
  5
9F
  8
CUT-INSIDE-21MM
 10
132.8309306309646
 20
48.81583795664341
 30
0.0
  0
VERTEX
  5
A0
  8
CUT-INSIDE-21MM
 10
132.8309306309646
 20
32.3839620433566
 30
0.0
 42
-1.0
  0
VERTEX
  5
A1
  8
CUT-INSIDE-21MM
 10
128.446868587608
 20
27.9999
 30
0.0
  0
VERTEX
  5
A2
  8
CUT-INSIDE-21MM
 10
116.2149926743212
 20
27.9999
 30
0.0
 42
-1.0
  0
VERTEX
  5
A3
  8
CUT-INSIDE-21MM
 10
111.8309306309646
 20
32.3839620433566
 30
0.0
  0
VERTEX
  5
A4
  8
CUT-INSIDE-21MM
 10
111.8309306309646
 20
48.81583795664341
 30
0.0
 42
-1.0
  0
SEQEND
  5
A5
  8
CUT-INSIDE-21MM
  0
POLYLINE
  5
44
  8
CUT-INSIDE-21MM
 66
     1
 10
0.0
 20
0.0
 30
0.0
 70
     1
  0
VERTEX
  5
A6
  8
CUT-INSIDE-21MM
 10
116.2149926743212
 20
1222.0
 30
0.0
  0
VERTEX
  5
A7
  8
CUT-INSIDE-21MM
 10
128.446868587608
 20
1222.0
 30
0.0
 42
-1.0
  0
VERTEX
  5
A8
  8
CUT-INSIDE-21MM
 10
132.8309306309646
 20
1217.615937956643
 30
0.0
  0
VERTEX
  5
A9
  8
CUT-INSIDE-21MM
 10
132.8309306309646
 20
1201.184062043357
 30
0.0
 42
-1.0
  0
VERTEX
  5
AA
  8
CUT-INSIDE-21MM
 10
128.446868587608
 20
1196.8
 30
0.0
  0
VERTEX
  5
AB
  8
CUT-INSIDE-21MM
 10
116.2149926743212
 20
1196.8
 30
0.0
 42
-1.0
  0
VERTEX
  5
AC
  8
CUT-INSIDE-21MM
 10
111.8309306309646
 20
1201.184062043357
 30
0.0
  0
VERTEX
  5
AD
  8
CUT-INSIDE-21MM
 10
111.8309306309646
 20
1217.615937956643
 30
0.0
 42
-1.0
  0
SEQEND
  5
AE
  8
CUT-INSIDE-21MM
  0
POLYLINE
  5
45
  8
CUT-INSIDE-21MM
 66
     1
 10
0.0
 20
0.0
 30
0.0
 70
     1
  0
VERTEX
  5
AF
  8
CUT-INSIDE-21MM
 10
1972.380457989806
 20
335.5
 30
0.0
  0
VERTEX
  5
B0
  8
CUT-INSIDE-21MM
 10
1985.612333903092
 20
335.5
 30
0.0
 42
-1.0
  0
VERTEX
  5
B1
  8
CUT-INSIDE-21MM
 10
1989.996395946449
 20
331.1159379566434
 30
0.0
  0
VERTEX
  5
B2
  8
CUT-INSIDE-21MM
 10
1989.996395946449
 20
248.8840620433566
 30
0.0
 42
-1.0
  0
VERTEX
  5
B3
  8
CUT-INSIDE-21MM
 10
1985.612333903092
 20
244.5
 30
0.0
  0
VERTEX
  5
B4
  8
CUT-INSIDE-21MM
 10
1972.380457989806
 20
244.5
 30
0.0
 42
-1.0
  0
VERTEX
  5
B5
  8
CUT-INSIDE-21MM
 10
1967.996395946449
 20
248.8840620433566
 30
0.0
  0
VERTEX
  5
B6
  8
CUT-INSIDE-21MM
 10
1967.996395946449
 20
331.1159379566434
 30
0.0
 42
-1.0
  0
SEQEND
  5
B7
  8
CUT-INSIDE-21MM
  0
POLYLINE
  5
46
  8
CUT-INSIDE-21MM
 66
     1
 10
0.0
 20
0.0
 30
0.0
 70
     1
  0
VERTEX
  5
B8
  8
CUT-INSIDE-21MM
 10
1143.430831816989
 20
330.3889041464321
 30
0.0
  0
VERTEX
  5
B9
  8
CUT-INSIDE-21MM
 10
1156.220765839135
 20
326.963415702307
 30
0.0
 42
-1.0
  0
VERTEX
  5
BA
  8
CUT-INSIDE-21MM
 10
1159.32115826858
 20
321.5935901253395
 30
0.0
  0
VERTEX
  5
BB
  8
CUT-INSIDE-21MM
 10
1138.031326541409
 20
242.1642641921228
 30
0.0
 42
-1.0
  0
VERTEX
  5
BC
  8
CUT-INSIDE-21MM
 10
1132.662044978154
 20
239.0646067959282
 30
0.0
  0
VERTEX
  5
BD
  8
CUT-INSIDE-21MM
 10
1119.880945071153
 20
242.4893401074792
 30
0.0
 42
-1.0
  0
VERTEX
  5
BE
  8
CUT-INSIDE-21MM
 10
1116.780930182013
 20
247.8585827928574
 30
0.0
  0
VERTEX
  5
BF
  8
CUT-INSIDE-21MM
 10
1138.061927794037
 20
327.2886638586482
 30
0.0
 42
-1.0
  0
SEQEND
  5
C0
  8
CUT-INSIDE-21MM
  0
POLYLINE
  5
47
  8
CUT-INSIDE-21MM
 66
     1
 10
0.0
 20
0.0
 30
0.0
 70
     1
  0
VERTEX
  5
C1
  8
CUT-INSIDE-21MM
 10
905.9514579898054
 20
731.5
 30
0.0
  0
VERTEX
  5
C2
  8
CUT-INSIDE-21MM
 10
988.1833339030921
 20
731.5
 30
0.0
 42
-1.0
  0
VERTEX
  5
C3
  8
CUT-INSIDE-21MM
 10
992.5673959464488
 20
727.1159379566434
 30
0.0
  0
VERTEX
  5
C4
  8
CUT-INSIDE-21MM
 10
992.5673959464488
 20
713.8840620433566
 30
0.0
 42
-1.0
  0
VERTEX
  5
C5
  8
CUT-INSIDE-21MM
 10
988.1833339030921
 20
709.5
 30
0.0
  0
VERTEX
  5
C6
  8
CUT-INSIDE-21MM
 10
905.9514579898054
 20
709.5
 30
0.0
 42
-1.0
  0
VERTEX
  5
C7
  8
CUT-INSIDE-21MM
 10
901.5673959464488
 20
713.8840620433566
 30
0.0
  0
VERTEX
  5
C8
  8
CUT-INSIDE-21MM
 10
901.5673959464488
 20
727.1159379566434
 30
0.0
 42
-1.0
  0
SEQEND
  5
C9
  8
CUT-INSIDE-21MM
  0
POLYLINE
  5
48
  8
CUT-INSIDE-21MM
 66
     1
 10
0.0
 20
0.0
 30
0.0
 70
     1
  0
VERTEX
  5
CA
  8
CUT-INSIDE-21MM
 10
1989.996395946449
 20
751.1159379566434
 30
0.0
  0
VERTEX
  5
CB
  8
CUT-INSIDE-21MM
 10
1989.996395946449
 20
668.8840620433566
 30
0.0
 42
-1.0
  0
VERTEX
  5
CC
  8
CUT-INSIDE-21MM
 10
1985.612333903092
 20
664.5
 30
0.0
  0
VERTEX
  5
CD
  8
CUT-INSIDE-21MM
 10
1972.380457989806
 20
664.5
 30
0.0
 42
-1.0
  0
VERTEX
  5
CE
  8
CUT-INSIDE-21MM
 10
1967.996395946449
 20
668.8840620433566
 30
0.0
  0
VERTEX
  5
CF
  8
CUT-INSIDE-21MM
 10
1967.996395946449
 20
751.1159379566434
 30
0.0
 42
-1.0
  0
VERTEX
  5
D0
  8
CUT-INSIDE-21MM
 10
1972.380457989806
 20
755.5
 30
0.0
  0
VERTEX
  5
D1
  8
CUT-INSIDE-21MM
 10
1985.612333903092
 20
755.5
 30
0.0
 42
-1.0
  0
SEQEND
  5
D2
  8
CUT-INSIDE-21MM
  0
POLYLINE
  5
49
  8
CUT-INSIDE-21MM
 66
     1
 10
0.0
 20
0.0
 30
0.0
 70
     1
  0
VERTEX
  5
D3
  8
CUT-INSIDE-21MM
 10
1935.426395946449
 20
706.1159379566434
 30
0.0
  0
VERTEX
  5
D4
  8
CUT-INSIDE-21MM
 10
1935.426395946449
 20
692.8840620433566
 30
0.0
 42
-1.0
  0
VERTEX
  5
D5
  8
CUT-INSIDE-21MM
 10
1931.042333903092
 20
688.5
 30
0.0
  0
VERTEX
  5
D6
  8
CUT-INSIDE-21MM
 10
1848.810457989806
 20
688.5
 30
0.0
 42
-1.0
  0
VERTEX
  5
D7
  8
CUT-INSIDE-21MM
 10
1844.426395946449
 20
692.8840620433566
 30
0.0
  0
VERTEX
  5
D8
  8
CUT-INSIDE-21MM
 10
1844.426395946449
 20
706.1159379566434
 30
0.0
 42
-1.0
  0
VERTEX
  5
D9
  8
CUT-INSIDE-21MM
 10
1848.810457989806
 20
710.5
 30
0.0
  0
VERTEX
  5
DA
  8
CUT-INSIDE-21MM
 10
1931.042333903092
 20
710.5
 30
0.0
 42
-1.0
  0
SEQEND
  5
DB
  8
CUT-INSIDE-21MM
  0
POLYLINE
  5
4A
  8
CUT-INSIDE-21MM
 66
     1
 10
0.0
 20
0.0
 30
0.0
 70
     1
  0
VERTEX
  5
DC
  8
CUT-INSIDE-21MM
 10
2429.769512043758
 20
877.7185040900816
 30
0.0
  0
VERTEX
  5
DD
  8
CUT-INSIDE-21MM
 10
2442.341511766446
 20
867.1359841990275
 30
0.0
 42
-1.0
  0
VERTEX
  5
DE
  8
CUT-INSIDE-21MM
 10
2442.871527571156
 20
860.9578602772309
 30
0.0
  0
VERTEX
  5
DF
  8
CUT-INSIDE-21MM
 10
2434.989775566656
 20
851.5993720324184
 30
0.0
 42
-1.0
  0
VERTEX
  5
E0
  8
CUT-INSIDE-21MM
 10
2428.81327984914
 20
851.0694959099184
 30
0.0
  0
VERTEX
  5
E1
  8
CUT-INSIDE-21MM
 10
2416.241280126451
 20
861.6520158009723
 30
0.0
 42
-1.0
  0
VERTEX
  5
E2
  8
CUT-INSIDE-21MM
 10
2415.711264321741
 20
867.8301397227692
 30
0.0
  0
VERTEX
  5
E3
  8
CUT-INSIDE-21MM
 10
2423.593016326242
 20
877.1886279675819
 30
0.0
 42
-1.0
  0
SEQEND
  5
E4
  8
CUT-INSIDE-21MM
  0
POLYLINE
  5
4B
  8
CUT-INSIDE-21MM
 66
     1
 10
0.0
 20
0.0
 30
0.0
 70
     1
  0
VERTEX
  5
E5
  8
CUT-INSIDE-21MM
 10
2429.770042300672
 20
1017.936883800361
 30
0.0
  0
VERTEX
  5
E6
  8
CUT-INSIDE-21MM
 10
2442.341905090923
 20
1007.35382710504
 30
0.0
 42
-1.0
  0
VERTEX
  5
E7
  8
CUT-INSIDE-21MM
 10
2442.871992294396
 20
1001.175994569289
 30
0.0
  0
VERTEX
  5
E8
  8
CUT-INSIDE-21MM
 10
2434.989571684859
 20
991.8155472719168
 30
0.0
 42
-1.0
  0
VERTEX
  5
E9
  8
CUT-INSIDE-21MM
 10
2428.813106407081
 20
991.2852940536994
 30
0.0
  0
VERTEX
  5
EA
  8
CUT-INSIDE-21MM
 10
2416.24114090685
 20
1001.866480992094
 30
0.0
 42
-1.0
  0
VERTEX
  5
EB
  8
CUT-INSIDE-21MM
 10
2415.710488484887
 20
1008.044262165019
 30
0.0
  0
VERTEX
  5
EC
  8
CUT-INSIDE-21MM
 10
2423.593011804405
 20
1017.406579219317
 30
0.0
 42
-1.0
  0
SEQEND
  5
ED
  8
CUT-INSIDE-21MM
  0
POLYLINE
  5
4C
  8
CUT-INSIDE-21MM
 66
     1
 10
0.0
 20
0.0
 30
0.0
 70
     1
  0
VERTEX
  5
EE
  8
CUT-INSIDE-21MM
 10
2069.680457989806
 20
1185.93
 30
0.0
  0
VERTEX
  5
EF
  8
CUT-INSIDE-21MM
 10
2086.112333903092
 20
1185.93
 30
0.0
 42
-1.0
  0
VERTEX
  5
F0
  8
CUT-INSIDE-21MM
 10
2090.496395946449
 20
1181.545937956643
 30
0.0
  0
VERTEX
  5
F1
  8
CUT-INSIDE-21MM
 10
2090.496395946449
 20
1169.314062043357
 30
0.0
 42
-1.0
  0
VERTEX
  5
F2
  8
CUT-INSIDE-21MM
 10
2086.112333903092
 20
1164.93
 30
0.0
  0
VERTEX
  5
F3
  8
CUT-INSIDE-21MM
 10
2069.680457989806
 20
1164.93
 30
0.0
 42
-1.0
  0
VERTEX
  5
F4
  8
CUT-INSIDE-21MM
 10
2065.296395946449
 20
1169.314062043357
 30
0.0
  0
VERTEX
  5
F5
  8
CUT-INSIDE-21MM
 10
2065.296395946449
 20
1181.545937956643
 30
0.0
 42
-1.0
  0
SEQEND
  5
F6
  8
CUT-INSIDE-21MM
  0
POLYLINE
  5
4D
  8
CUT-INSIDE-21MM
 66
     1
 10
0.0
 20
0.0
 30
0.0
 70
     1
  0
VERTEX
  5
F7
  8
CUT-INSIDE-21MM
 10
928.4082720315628
 20
909.1455714812057
 30
0.0
  0
VERTEX
  5
F8
  8
CUT-INSIDE-21MM
 10
940.9785605881058
 20
898.5633942333513
 30
0.0
 42
-1.0
  0
VERTEX
  5
F9
  8
CUT-INSIDE-21MM
 10
941.5090220764113
 20
892.3861474991015
 30
0.0
  0
VERTEX
  5
FA
  8
CUT-INSIDE-21MM
 10
933.6318041016818
 20
883.0288932278778
 30
0.0
 42
-1.0
  0
VERTEX
  5
FB
  8
CUT-INSIDE-21MM
 10
927.4545198613347
 20
882.4984285187943
 30
0.0
  0
VERTEX
  5
FC
  8
CUT-INSIDE-21MM
 10
914.8842313047917
 20
893.0806057666487
 30
0.0
 42
-1.0
  0
VERTEX
  5
FD
  8
CUT-INSIDE-21MM
 10
914.3537698164862
 20
899.2578525008985
 30
0.0
  0
VERTEX
  5
FE
  8
CUT-INSIDE-21MM
 10
922.2309877912156
 20
908.6151067721222
 30
0.0
 42
-1.0
  0
SEQEND
  5
FF
  8
CUT-INSIDE-21MM
  0
POLYLINE
  5
4E
  8
CUT-INSIDE-21MM
 66
     1
 10
0.0
 20
0.0
 30
0.0
 70
     1
  0
VERTEX
  5
100
  8
CUT-INSIDE-21MM
 10
928.4088023611685
 20
1049.365951026512
 30
0.0
  0
VERTEX
  5
101
  8
CUT-INSIDE-21MM
 10
940.9792622221428
 20
1038.782977505213
 30
0.0
 42
-1.0
  0
VERTEX
  5
102
  8
CUT-INSIDE-21MM
 10
941.5100547165183
 20
1032.606330703565
 30
0.0
  0
VERTEX
  5
103
  8
CUT-INSIDE-21MM
 10
933.6318084031548
 20
1023.244942190126
 30
0.0
 42
-1.0
  0
VERTEX
  5
104
  8
CUT-INSIDE-21MM
 10
927.4539895317291
 20
1022.714048973488
 30
0.0
  0
VERTEX
  5
105
  8
CUT-INSIDE-21MM
 10
914.8835296707548
 20
1033.297022494787
 30
0.0
 42
-1.0
  0
VERTEX
  5
106
  8
CUT-INSIDE-21MM
 10
914.3527371763792
 20
1039.473669296435
 30
0.0
  0
VERTEX
  5
107
  8
CUT-INSIDE-21MM
 10
922.2309834897427
 20
1048.835057809874
 30
0.0
 42
-1.0
  0
SEQEND
  5
108
  8
CUT-INSIDE-21MM
  0
POLYLINE
  5
4F
  8
CUT-INSIDE-21MM
 66
     1
 10
0.0
 20
0.0
 30
0.0
 70
     1
  0
VERTEX
  5
109
  8
CUT-INSIDE-21MM
 10
900.8804579898053
 20
1185.93
 30
0.0
  0
VERTEX
  5
10A
  8
CUT-INSIDE-21MM
 10
917.312333903092
 20
1185.93
 30
0.0
 42
-1.0
  0
VERTEX
  5
10B
  8
CUT-INSIDE-21MM
 10
921.6963959464487
 20
1181.545937956643
 30
0.0
  0
VERTEX
  5
10C
  8
CUT-INSIDE-21MM
 10
921.6963959464487
 20
1169.314062043357
 30
0.0
 42
-1.0
  0
VERTEX
  5
10D
  8
CUT-INSIDE-21MM
 10
917.312333903092
 20
1164.93
 30
0.0
  0
VERTEX
  5
10E
  8
CUT-INSIDE-21MM
 10
900.8804579898053
 20
1164.93
 30
0.0
 42
-1.0
  0
VERTEX
  5
10F
  8
CUT-INSIDE-21MM
 10
896.4963959464487
 20
1169.314062043357
 30
0.0
  0
VERTEX
  5
110
  8
CUT-INSIDE-21MM
 10
896.4963959464487
 20
1181.545937956643
 30
0.0
 42
-1.0
  0
SEQEND
  5
111
  8
CUT-INSIDE-21MM
  0
POLYLINE
  5
50
  8
CUT-INSIDE-21MM
 66
     1
 10
0.0
 20
0.0
 30
0.0
 70
     1
  0
VERTEX
  5
112
  8
CUT-INSIDE-21MM
 10
536.2149926743213
 20
1222.0
 30
0.0
  0
VERTEX
  5
113
  8
CUT-INSIDE-21MM
 10
548.446868587608
 20
1222.0
 30
0.0
 42
-1.0
  0
VERTEX
  5
114
  8
CUT-INSIDE-21MM
 10
552.8309306309646
 20
1217.615937956643
 30
0.0
  0
VERTEX
  5
115
  8
CUT-INSIDE-21MM
 10
552.8309306309646
 20
1201.184062043357
 30
0.0
 42
-1.0
  0
VERTEX
  5
116
  8
CUT-INSIDE-21MM
 10
548.446868587608
 20
1196.8
 30
0.0
  0
VERTEX
  5
117
  8
CUT-INSIDE-21MM
 10
536.2149926743213
 20
1196.8
 30
0.0
 42
-1.0
  0
VERTEX
  5
118
  8
CUT-INSIDE-21MM
 10
531.8309306309646
 20
1201.184062043357
 30
0.0
  0
VERTEX
  5
119
  8
CUT-INSIDE-21MM
 10
531.8309306309646
 20
1217.615937956643
 30
0.0
 42
-1.0
  0
SEQEND
  5
11A
  8
CUT-INSIDE-21MM
  0
POLYLINE
  5
52
  8
CUT-OUTSIDE-21MM
 66
     1
 10
0.0
 20
0.0
 30
0.0
 70
     1
  0
VERTEX
  5
11B
  8
CUT-OUTSIDE-21MM
 10
868.4963959464487
 20
796.9
 30
0.0
  0
VERTEX
  5
11C
  8
CUT-OUTSIDE-21MM
 10
868.4963959464487
 20
3.1
 30
0.0
 42
0.4142135623748376
  0
VERTEX
  5
11D
  8
CUT-OUTSIDE-21MM
 10
871.5963959464488
 20
0.0
 30
0.0
  0
VERTEX
  5
11E
  8
CUT-OUTSIDE-21MM
 10
1065.396395946449
 20
0.0
 30
0.0
 42
0.4142135623726084
  0
VERTEX
  5
11F
  8
CUT-OUTSIDE-21MM
 10
1068.496395946449
 20
3.100000000000001
 30
0.0
  0
VERTEX
  5
120
  8
CUT-OUTSIDE-21MM
 10
1068.496395946449
 20
196.9
 30
0.0
 42
-0.4142135623634395
  0
VERTEX
  5
121
  8
CUT-OUTSIDE-21MM
 10
1071.596395946449
 20
200.0
 30
0.0
  0
VERTEX
  5
122
  8
CUT-OUTSIDE-21MM
 10
2015.796395946449
 20
200.0
 30
0.0
 42
0.4142135623908894
  0
VERTEX
  5
123
  8
CUT-OUTSIDE-21MM
 10
2018.896395946449
 20
203.1
 30
0.0
  0
VERTEX
  5
124
  8
CUT-OUTSIDE-21MM
 10
2018.896395946449
 20
376.9
 30
0.0
 42
0.4142135623644781
  0
VERTEX
  5
125
  8
CUT-OUTSIDE-21MM
 10
2015.796395946449
 20
380.0
 30
0.0
  0
VERTEX
  5
126
  8
CUT-OUTSIDE-21MM
 10
1071.596395946449
 20
380.0
 30
0.0
 42
-0.4142135623648449
  0
VERTEX
  5
127
  8
CUT-OUTSIDE-21MM
 10
1068.496395946449
 20
383.1
 30
0.0
  0
VERTEX
  5
128
  8
CUT-OUTSIDE-21MM
 10
1068.496395946449
 20
616.9
 30
0.0
 42
-0.4142135623799725
  0
VERTEX
  5
129
  8
CUT-OUTSIDE-21MM
 10
1071.596395946449
 20
620.0
 30
0.0
  0
VERTEX
  5
12A
  8
CUT-OUTSIDE-21MM
 10
2015.796395946449
 20
620.0
 30
0.0
 42
0.4142135624259607
  0
VERTEX
  5
12B
  8
CUT-OUTSIDE-21MM
 10
2018.896395946449
 20
623.1
 30
0.0
  0
VERTEX
  5
12C
  8
CUT-OUTSIDE-21MM
 10
2018.896395946449
 20
796.9
 30
0.0
 42
0.4142135623639097
  0
VERTEX
  5
12D
  8
CUT-OUTSIDE-21MM
 10
2015.796395946449
 20
800.0
 30
0.0
  0
VERTEX
  5
12E
  8
CUT-OUTSIDE-21MM
 10
871.5963959464488
 20
800.0
 30
0.0
 42
0.4142135623788831
  0
SEQEND
  5
12F
  8
CUT-OUTSIDE-21MM
  0
POLYLINE
  5
53
  8
CUT-OUTSIDE-21MM
 66
     1
 10
0.0
 20
0.0
 30
0.0
 70
     1
  0
VERTEX
  5
130
  8
CUT-OUTSIDE-21MM
 10
902.6581345255391
 20
820.0
 30
0.0
  0
VERTEX
  5
131
  8
CUT-OUTSIDE-21MM
 10
2358.583829582448
 20
819.9999999999998
 30
0.0
 42
0.2212793177429118
  0
VERTEX
  5
132
  8
CUT-OUTSIDE-21MM
 10
2360.955408654923
 20
821.1036000643657
 30
0.0
  0
VERTEX
  5
133
  8
CUT-OUTSIDE-21MM
 10
2381.646395946449
 20
845.683
 30
0.0
  0
VERTEX
  5
134
  8
CUT-OUTSIDE-21MM
 10
2425.174827948074
 20
809.0385089112247
 30
0.0
 42
0.4142193927527298
  0
VERTEX
  5
135
  8
CUT-OUTSIDE-21MM
 10
2429.542857648527
 20
809.4136077406795
 30
0.0
  0
VERTEX
  5
136
  8
CUT-OUTSIDE-21MM
 10
2483.510013726458
 20
873.5214866765249
 30
0.0
 42
0.4142077319885621
  0
VERTEX
  5
137
  8
CUT-OUTSIDE-21MM
 10
2483.134922363696
 20
877.889429427258
 30
0.0
  0
VERTEX
  5
138
  8
CUT-OUTSIDE-21MM
 10
2439.606395946448
 20
914.534
 30
0.0
  0
VERTEX
  5
139
  8
CUT-OUTSIDE-21MM
 10
2456.936031091607
 20
935.1195545697483
 30
0.0
 42
0.6376337576473257
  0
VERTEX
  5
13A
  8
CUT-OUTSIDE-21MM
 10
2454.564490317337
 20
940.2160000000001
 30
0.0
  0
VERTEX
  5
13B
  8
CUT-OUTSIDE-21MM
 10
998.6409261375107
 20
940.2160000000001
 30
0.0
 42
0.2212742871526641
  0
VERTEX
  5
13C
  8
CUT-OUTSIDE-21MM
 10
996.2693853632404
 20
939.1124454302519
 30
0.0
  0
VERTEX
  5
13D
  8
CUT-OUTSIDE-21MM
 10
975.5783959464488
 20
914.534
 30
0.0
  0
VERTEX
  5
13E
  8
CUT-OUTSIDE-21MM
 10
932.0489567300892
 20
951.1785406583592
 30
0.0
 42
0.4142158551130494
  0
VERTEX
  5
13F
  8
CUT-OUTSIDE-21MM
 10
927.6809551691988
 20
950.8034235883574
 30
0.0
  0
VERTEX
  5
140
  8
CUT-OUTSIDE-21MM
 10
873.7128094942436
 20
886.6945440657126
 30
0.0
 42
0.4142118603094822
  0
VERTEX
  5
141
  8
CUT-OUTSIDE-21MM
 10
874.0879284105682
 20
882.3265726707282
 30
0.0
  0
VERTEX
  5
142
  8
CUT-OUTSIDE-21MM
 10
917.6163959464488
 20
845.683
 30
0.0
  0
VERTEX
  5
143
  8
CUT-OUTSIDE-21MM
 10
900.2865554530647
 20
825.0963999356344
 30
0.0
 42
0.6376270119172613
  0
SEQEND
  5
144
  8
CUT-OUTSIDE-21MM
  0
POLYLINE
  5
54
  8
CUT-OUTSIDE-21MM
 66
     1
 10
0.0
 20
0.0
 30
0.0
 70
     1
  0
VERTEX
  5
145
  8
CUT-OUTSIDE-21MM
 10
902.6581345255391
 20
960.2160000000001
 30
0.0
  0
VERTEX
  5
146
  8
CUT-OUTSIDE-21MM
 10
2358.583829582441
 20
960.2160000000001
 30
0.0
 42
0.2212793179104822
  0
VERTEX
  5
147
  8
CUT-OUTSIDE-21MM
 10
2360.955408654916
 20
961.3196000643657
 30
0.0
  0
VERTEX
  5
148
  8
CUT-OUTSIDE-21MM
 10
2381.646395946449
 20
985.899
 30
0.0
  0
VERTEX
  5
149
  8
CUT-OUTSIDE-21MM
 10
2425.174810977898
 20
949.254523197599
 30
0.0
 42
0.4142214886194449
  0
VERTEX
  5
14A
  8
CUT-OUTSIDE-21MM
 10
2429.542854963991
 20
949.6296389971673
 30
0.0
  0
VERTEX
  5
14B
  8
CUT-OUTSIDE-21MM
 10
2483.510019527121
 20
1013.738459123127
 30
0.0
 42
0.4142093706951819
  0
VERTEX
  5
14C
  8
CUT-OUTSIDE-21MM
 10
2483.134883640812
 20
1018.106410359255
 30
0.0
  0
VERTEX
  5
14D
  8
CUT-OUTSIDE-21MM
 10
2439.606395946448
 20
1054.75
 30
0.0
  0
VERTEX
  5
14E
  8
CUT-OUTSIDE-21MM
 10
2456.935620343796
 20
1075.333463576497
 30
0.0
 42
0.6376472501377124
  0
VERTEX
  5
14F
  8
CUT-OUTSIDE-21MM
 10
2454.564156173789
 20
1080.43
 30
0.0
  0
VERTEX
  5
150
  8
CUT-OUTSIDE-21MM
 10
998.6408537876416
 20
1080.43
 30
0.0
 42
0.2212642251420837
  0
VERTEX
  5
151
  8
CUT-OUTSIDE-21MM
 10
996.2693896176345
 20
1079.326536423503
 30
0.0
  0
VERTEX
  5
152
  8
CUT-OUTSIDE-21MM
 10
975.5783959464488
 20
1054.75
 30
0.0
  0
VERTEX
  5
153
  8
CUT-OUTSIDE-21MM
 10
932.0489180068988
 20
1091.39362492286
 30
0.0
 42
0.414207928901945
  0
VERTEX
  5
154
  8
CUT-OUTSIDE-21MM
 10
927.6809752560939
 20
1091.018516338039
 30
0.0
  0
VERTEX
  5
155
  8
CUT-OUTSIDE-21MM
 10
873.7128465509882
 20
1026.911519196055
 30
0.0
 42
0.414212317557028
  0
VERTEX
  5
156
  8
CUT-OUTSIDE-21MM
 10
874.0879066573881
 20
1022.543539316309
 30
0.0
  0
VERTEX
  5
157
  8
CUT-OUTSIDE-21MM
 10
917.6163959464488
 20
985.899
 30
0.0
  0
VERTEX
  5
158
  8
CUT-OUTSIDE-21MM
 10
900.2865554530647
 20
965.3123999356345
 30
0.0
 42
0.6376270119244069
  0
SEQEND
  5
159
  8
CUT-OUTSIDE-21MM
  0
POLYLINE
  5
55
  8
CUT-OUTSIDE-21MM
 66
     1
 10
0.0
 20
0.0
 30
0.0
 70
     1
  0
VERTEX
  5
15A
  8
CUT-OUTSIDE-21MM
 10
933.4963959464487
 20
1130.43
 30
0.0
  0
VERTEX
  5
15B
  8
CUT-OUTSIDE-21MM
 10
933.4963959464487
 20
1103.53
 30
0.0
 42
0.4142135623867571
  0
VERTEX
  5
15C
  8
CUT-OUTSIDE-21MM
 10
936.5963959464488
 20
1100.43
 30
0.0
  0
VERTEX
  5
15D
  8
CUT-OUTSIDE-21MM
 10
2050.396395946449
 20
1100.43
 30
0.0
 42
0.4142135624119409
  0
VERTEX
  5
15E
  8
CUT-OUTSIDE-21MM
 10
2053.496395946449
 20
1103.53
 30
0.0
  0
VERTEX
  5
15F
  8
CUT-OUTSIDE-21MM
 10
2053.496395946449
 20
1130.43
 30
0.0
  0
VERTEX
  5
160
  8
CUT-OUTSIDE-21MM
 10
2110.396395946449
 20
1130.43
 30
0.0
 42
0.4142135623000143
  0
VERTEX
  5
161
  8
CUT-OUTSIDE-21MM
 10
2113.496395946449
 20
1133.53
 30
0.0
  0
VERTEX
  5
162
  8
CUT-OUTSIDE-21MM
 10
2113.496395946449
 20
1217.33
 30
0.0
 42
0.4142135623432887
  0
VERTEX
  5
163
  8
CUT-OUTSIDE-21MM
 10
2110.396395946449
 20
1220.43
 30
0.0
  0
VERTEX
  5
164
  8
CUT-OUTSIDE-21MM
 10
2053.496395946449
 20
1220.43
 30
0.0
  0
VERTEX
  5
165
  8
CUT-OUTSIDE-21MM
 10
2053.496395946449
 20
1247.33
 30
0.0
 42
0.4142135623363941
  0
VERTEX
  5
166
  8
CUT-OUTSIDE-21MM
 10
2050.396395946449
 20
1250.43
 30
0.0
  0
VERTEX
  5
167
  8
CUT-OUTSIDE-21MM
 10
936.5963959464488
 20
1250.43
 30
0.0
 42
0.4142135623570518
  0
VERTEX
  5
168
  8
CUT-OUTSIDE-21MM
 10
933.4963959464487
 20
1247.33
 30
0.0
  0
VERTEX
  5
169
  8
CUT-OUTSIDE-21MM
 10
933.4963959464487
 20
1220.43
 30
0.0
  0
VERTEX
  5
16A
  8
CUT-OUTSIDE-21MM
 10
876.5963959464488
 20
1220.43
 30
0.0
 42
0.4142135623823196
  0
VERTEX
  5
16B
  8
CUT-OUTSIDE-21MM
 10
873.4963959464487
 20
1217.33
 30
0.0
  0
VERTEX
  5
16C
  8
CUT-OUTSIDE-21MM
 10
873.4963959464487
 20
1133.53
 30
0.0
 42
0.4142135623775888
  0
VERTEX
  5
16D
  8
CUT-OUTSIDE-21MM
 10
876.5963959464488
 20
1130.43
 30
0.0
  0
SEQEND
  5
16E
  8
CUT-OUTSIDE-21MM
  0
POLYLINE
  5
56
  8
CUT-OUTSIDE-21MM
 66
     1
 10
0.0
 20
0.0
 30
0.0
 70
     1
  0
VERTEX
  5
16F
  8
CUT-OUTSIDE-21MM
 10
2430.0
 20
446.9661314692482
 30
0.0
  0
VERTEX
  5
170
  8
CUT-OUTSIDE-21MM
 10
2430.0
 20
429.9
 30
0.0
 42
0.4142135623718127
  0
VERTEX
  5
171
  8
CUT-OUTSIDE-21MM
 10
2433.1
 20
426.8
 30
0.0
  0
VERTEX
  5
172
  8
CUT-OUTSIDE-21MM
 10
2466.961371962794
 20
426.8
 30
0.0
 42
0.7901201480224744
  0
VERTEX
  5
173
  8
CUT-OUTSIDE-21MM
 10
2468.356585532237
 20
432.6682808917524
 30
0.0
  0
VERTEX
  5
174
  8
CUT-OUTSIDE-21MM
 10
2434.495213569443
 20
449.7344123610006
 30
0.0
 42
0.5585839812908617
  0
SEQEND
  5
175
  8
CUT-OUTSIDE-21MM
  0
POLYLINE
  5
57
  8
CUT-OUTSIDE-21MM
 66
     1
 10
0.0
 20
0.0
 30
0.0
 70
     1
  0
VERTEX
  5
176
  8
CUT-OUTSIDE-21MM
 10
2468.356585532237
 20
387.4682808917524
 30
0.0
  0
VERTEX
  5
177
  8
CUT-OUTSIDE-21MM
 10
2434.495213569443
 20
404.5344123610006
 30
0.0
 42
0.5585839812982778
  0
VERTEX
  5
178
  8
CUT-OUTSIDE-21MM
 10
2430.0
 20
401.7661314692482
 30
0.0
  0
VERTEX
  5
179
  8
CUT-OUTSIDE-21MM
 10
2430.0
 20
384.7
 30
0.0
 42
0.4142135623666968
  0
VERTEX
  5
17A
  8
CUT-OUTSIDE-21MM
 10
2433.1
 20
381.6
 30
0.0
  0
VERTEX
  5
17B
  8
CUT-OUTSIDE-21MM
 10
2466.961371962794
 20
381.6
 30
0.0
 42
0.7901201480263917
  0
SEQEND
  5
17C
  8
CUT-OUTSIDE-21MM
  0
POLYLINE
  5
58
  8
CUT-OUTSIDE-21MM
 66
     1
 10
0.0
 20
0.0
 30
0.0
 70
     1
  0
VERTEX
  5
17D
  8
CUT-OUTSIDE-21MM
 10
2430.0
 20
356.5661314692482
 30
0.0
  0
VERTEX
  5
17E
  8
CUT-OUTSIDE-21MM
 10
2430.0
 20
339.5
 30
0.0
 42
0.4142135623544297
  0
VERTEX
  5
17F
  8
CUT-OUTSIDE-21MM
 10
2433.1
 20
336.4
 30
0.0
  0
VERTEX
  5
180
  8
CUT-OUTSIDE-21MM
 10
2466.961371962794
 20
336.4
 30
0.0
 42
0.7901201480343119
  0
VERTEX
  5
181
  8
CUT-OUTSIDE-21MM
 10
2468.356585532237
 20
342.2682808917524
 30
0.0
  0
VERTEX
  5
182
  8
CUT-OUTSIDE-21MM
 10
2434.495213569443
 20
359.3344123610007
 30
0.0
 42
0.5585839813022222
  0
SEQEND
  5
183
  8
CUT-OUTSIDE-21MM
  0
POLYLINE
  5
59
  8
CUT-OUTSIDE-21MM
 66
     1
 10
0.0
 20
0.0
 30
0.0
 70
     1
  0
VERTEX
  5
184
  8
CUT-OUTSIDE-21MM
 10
2430.0
 20
311.3661314692482
 30
0.0
  0
VERTEX
  5
185
  8
CUT-OUTSIDE-21MM
 10
2430.0
 20
294.3
 30
0.0
 42
0.4142135623387702
  0
VERTEX
  5
186
  8
CUT-OUTSIDE-21MM
 10
2433.1
 20
291.2
 30
0.0
  0
VERTEX
  5
187
  8
CUT-OUTSIDE-21MM
 10
2466.961371962794
 20
291.2
 30
0.0
 42
0.7901201480112716
  0
VERTEX
  5
188
  8
CUT-OUTSIDE-21MM
 10
2468.356585532237
 20
297.0682808917524
 30
0.0
  0
VERTEX
  5
189
  8
CUT-OUTSIDE-21MM
 10
2434.495213569443
 20
314.1344123610006
 30
0.0
 42
0.5585839812982265
  0
SEQEND
  5
18A
  8
CUT-OUTSIDE-21MM
  0
POLYLINE
  5
5A
  8
CUT-OUTSIDE-21MM
 66
     1
 10
0.0
 20
0.0
 30
0.0
 70
     1
  0
VERTEX
  5
18B
  8
CUT-OUTSIDE-21MM
 10
2430.0
 20
266.1661314692482
 30
0.0
  0
VERTEX
  5
18C
  8
CUT-OUTSIDE-21MM
 10
2430.0
 20
249.1
 30
0.0
 42
0.4142135623841506
  0
VERTEX
  5
18D
  8
CUT-OUTSIDE-21MM
 10
2433.1
 20
246.0
 30
0.0
  0
VERTEX
  5
18E
  8
CUT-OUTSIDE-21MM
 10
2466.961371962794
 20
246.0
 30
0.0
 42
0.7901201480333034
  0
VERTEX
  5
18F
  8
CUT-OUTSIDE-21MM
 10
2468.356585532237
 20
251.8682808917524
 30
0.0
  0
VERTEX
  5
190
  8
CUT-OUTSIDE-21MM
 10
2434.495213569443
 20
268.9344123610006
 30
0.0
 42
0.558583981292346
  0
SEQEND
  5
191
  8
CUT-OUTSIDE-21MM
  0
POLYLINE
  5
5B
  8
CUT-OUTSIDE-21MM
 66
     1
 10
0.0
 20
0.0
 30
0.0
 70
     1
  0
VERTEX
  5
192
  8
CUT-OUTSIDE-21MM
 10
2430.0
 20
220.9661314692482
 30
0.0
  0
VERTEX
  5
193
  8
CUT-OUTSIDE-21MM
 10
2430.0
 20
203.9
 30
0.0
 42
0.4142135623571684
  0
VERTEX
  5
194
  8
CUT-OUTSIDE-21MM
 10
2433.1
 20
200.8
 30
0.0
  0
VERTEX
  5
195
  8
CUT-OUTSIDE-21MM
 10
2466.961371962794
 20
200.8
 30
0.0
 42
0.790120148051545
  0
VERTEX
  5
196
  8
CUT-OUTSIDE-21MM
 10
2468.356585532237
 20
206.6682808917524
 30
0.0
  0
VERTEX
  5
197
  8
CUT-OUTSIDE-21MM
 10
2434.495213569443
 20
223.7344123610006
 30
0.0
 42
0.5585839812809513
  0
SEQEND
  5
198
  8
CUT-OUTSIDE-21MM
  0
POLYLINE
  5
5C
  8
CUT-OUTSIDE-21MM
 66
     1
 10
0.0
 20
0.0
 30
0.0
 70
     1
  0
VERTEX
  5
199
  8
CUT-OUTSIDE-21MM
 10
2430.0
 20
175.7661314692482
 30
0.0
  0
VERTEX
  5
19A
  8
CUT-OUTSIDE-21MM
 10
2430.0
 20
158.7
 30
0.0
 42
0.4142135623236949
  0
VERTEX
  5
19B
  8
CUT-OUTSIDE-21MM
 10
2433.1
 20
155.6
 30
0.0
  0
VERTEX
  5
19C
  8
CUT-OUTSIDE-21MM
 10
2466.961371962794
 20
155.6
 30
0.0
 42
0.7901201480152793
  0
VERTEX
  5
19D
  8
CUT-OUTSIDE-21MM
 10
2468.356585532237
 20
161.4682808917524
 30
0.0
  0
VERTEX
  5
19E
  8
CUT-OUTSIDE-21MM
 10
2434.495213569443
 20
178.5344123610006
 30
0.0
 42
0.5585839813225445
  0
SEQEND
  5
19F
  8
CUT-OUTSIDE-21MM
  0
POLYLINE
  5
5D
  8
CUT-OUTSIDE-21MM
 66
     1
 10
0.0
 20
0.0
 30
0.0
 70
     1
  0
VERTEX
  5
1A0
  8
CUT-OUTSIDE-21MM
 10
2430.0
 20
130.5661314692482
 30
0.0
  0
VERTEX
  5
1A1
  8
CUT-OUTSIDE-21MM
 10
2430.0
 20
113.5
 30
0.0
 42
0.4142135623540603
  0
VERTEX
  5
1A2
  8
CUT-OUTSIDE-21MM
 10
2433.1
 20
110.4
 30
0.0
  0
VERTEX
  5
1A3
  8
CUT-OUTSIDE-21MM
 10
2466.961371962794
 20
110.4
 30
0.0
 42
0.7901201480253193
  0
VERTEX
  5
1A4
  8
CUT-OUTSIDE-21MM
 10
2468.356585532237
 20
116.2682808917524
 30
0.0
  0
VERTEX
  5
1A5
  8
CUT-OUTSIDE-21MM
 10
2434.495213569443
 20
133.3344123610006
 30
0.0
 42
0.5585839813018826
  0
SEQEND
  5
1A6
  8
CUT-OUTSIDE-21MM
  0
POLYLINE
  5
5E
  8
CUT-OUTSIDE-21MM
 66
     1
 10
0.0
 20
0.0
 30
0.0
 70
     1
  0
VERTEX
  5
1A7
  8
CUT-OUTSIDE-21MM
 10
2430.0
 20
85.36594045967092
 30
0.0
  0
VERTEX
  5
1A8
  8
CUT-OUTSIDE-21MM
 10
2430.0
 20
68.2999
 30
0.0
 42
0.4142135623391068
  0
VERTEX
  5
1A9
  8
CUT-OUTSIDE-21MM
 10
2433.1
 20
65.1999
 30
0.0
  0
VERTEX
  5
1AA
  8
CUT-OUTSIDE-21MM
 10
2466.961325758576
 20
65.1999
 30
0.0
 42
0.7901207956708287
  0
VERTEX
  5
1AB
  8
CUT-OUTSIDE-21MM
 10
2468.356534912949
 20
71.06818311694329
 30
0.0
  0
VERTEX
  5
1AC
  8
CUT-OUTSIDE-21MM
 10
2434.495209154373
 20
88.13422357661422
 30
0.0
 42
0.5585834581612389
  0
SEQEND
  5
1AD
  8
CUT-OUTSIDE-21MM
  0
POLYLINE
  5
5F
  8
CUT-OUTSIDE-21MM
 66
     1
 10
0.0
 20
0.0
 30
0.0
 70
     1
  0
VERTEX
  5
1AE
  8
CUT-OUTSIDE-21MM
 10
2468.356534912949
 20
25.86828311694329
 30
0.0
  0
VERTEX
  5
1AF
  8
CUT-OUTSIDE-21MM
 10
2434.495209154373
 20
42.93432357661422
 30
0.0
 42
0.5585834581632362
  0
VERTEX
  5
1B0
  8
CUT-OUTSIDE-21MM
 10
2430.0
 20
40.16604045967093
 30
0.0
  0
VERTEX
  5
1B1
  8
CUT-OUTSIDE-21MM
 10
2430.0
 20
23.1
 30
0.0
 42
0.4142135623293513
  0
VERTEX
  5
1B2
  8
CUT-OUTSIDE-21MM
 10
2433.1
 20
20.0
 30
0.0
  0
VERTEX
  5
1B3
  8
CUT-OUTSIDE-21MM
 10
2466.961325758576
 20
20.0
 30
0.0
 42
0.7901207956551404
  0
SEQEND
  5
1B4
  8
CUT-OUTSIDE-21MM
  0
POLYLINE
  5
60
  8
CUT-OUTSIDE-21MM
 66
     1
 10
0.0
 20
0.0
 30
0.0
 70
     1
  0
VERTEX
  5
1B5
  8
CUT-OUTSIDE-21MM
 10
77.33093063096464
 20
65.0
 30
0.0
  0
VERTEX
  5
1B6
  8
CUT-OUTSIDE-21MM
 10
77.33093063096464
 20
8.100000000000001
 30
0.0
 42
0.4142135623731191
  0
VERTEX
  5
1B7
  8
CUT-OUTSIDE-21MM
 10
80.43093063096464
 20
5.0
 30
0.0
  0
VERTEX
  5
1B8
  8
CUT-OUTSIDE-21MM
 10
164.2309306309646
 20
5.0
 30
0.0
 42
0.414213562373042
  0
VERTEX
  5
1B9
  8
CUT-OUTSIDE-21MM
 10
167.3309306309646
 20
8.100000000000001
 30
0.0
  0
VERTEX
  5
1BA
  8
CUT-OUTSIDE-21MM
 10
167.3309306309646
 20
65.0
 30
0.0
  0
VERTEX
  5
1BB
  8
CUT-OUTSIDE-21MM
 10
497.3309306309646
 20
65.0
 30
0.0
  0
VERTEX
  5
1BC
  8
CUT-OUTSIDE-21MM
 10
497.3309306309646
 20
8.100000000000001
 30
0.0
 42
0.4142135623754478
  0
VERTEX
  5
1BD
  8
CUT-OUTSIDE-21MM
 10
500.4309306309646
 20
5.0
 30
0.0
  0
VERTEX
  5
1BE
  8
CUT-OUTSIDE-21MM
 10
584.2309306309646
 20
5.0
 30
0.0
 42
0.4142135623708692
  0
VERTEX
  5
1BF
  8
CUT-OUTSIDE-21MM
 10
587.3309306309646
 20
8.100000000000001
 30
0.0
  0
VERTEX
  5
1C0
  8
CUT-OUTSIDE-21MM
 10
587.3309306309646
 20
65.0
 30
0.0
  0
VERTEX
  5
1C1
  8
CUT-OUTSIDE-21MM
 10
829.2309306309646
 20
65.0
 30
0.0
 42
0.4142135623771751
  0
VERTEX
  5
1C2
  8
CUT-OUTSIDE-21MM
 10
832.3309306309646
 20
68.1
 30
0.0
  0
VERTEX
  5
1C3
  8
CUT-OUTSIDE-21MM
 10
832.3309306309646
 20
1181.9
 30
0.0
 42
0.4142135623950086
  0
VERTEX
  5
1C4
  8
CUT-OUTSIDE-21MM
 10
829.2309306309646
 20
1185.0
 30
0.0
  0
VERTEX
  5
1C5
  8
CUT-OUTSIDE-21MM
 10
587.3309306309646
 20
1185.0
 30
0.0
  0
VERTEX
  5
1C6
  8
CUT-OUTSIDE-21MM
 10
587.3309306309646
 20
1241.9
 30
0.0
 42
0.4142135623518442
  0
VERTEX
  5
1C7
  8
CUT-OUTSIDE-21MM
 10
584.2309306309646
 20
1245.0
 30
0.0
  0
VERTEX
  5
1C8
  8
CUT-OUTSIDE-21MM
 10
500.4309306309646
 20
1245.0
 30
0.0
 42
0.4142135623652482
  0
VERTEX
  5
1C9
  8
CUT-OUTSIDE-21MM
 10
497.3309306309646
 20
1241.9
 30
0.0
  0
VERTEX
  5
1CA
  8
CUT-OUTSIDE-21MM
 10
497.3309306309646
 20
1185.0
 30
0.0
  0
VERTEX
  5
1CB
  8
CUT-OUTSIDE-21MM
 10
167.3309306309646
 20
1185.0
 30
0.0
  0
VERTEX
  5
1CC
  8
CUT-OUTSIDE-21MM
 10
167.3309306309646
 20
1241.9
 30
0.0
 42
0.4142135623611199
  0
VERTEX
  5
1CD
  8
CUT-OUTSIDE-21MM
 10
164.2309306309646
 20
1245.0
 30
0.0
  0
VERTEX
  5
1CE
  8
CUT-OUTSIDE-21MM
 10
80.43093063096464
 20
1245.0
 30
0.0
 42
0.4142135623710079
  0
VERTEX
  5
1CF
  8
CUT-OUTSIDE-21MM
 10
77.33093063096464
 20
1241.9
 30
0.0
  0
VERTEX
  5
1D0
  8
CUT-OUTSIDE-21MM
 10
77.33093063096464
 20
1185.0
 30
0.0
  0
VERTEX
  5
1D1
  8
CUT-OUTSIDE-21MM
 10
35.43093063096464
 20
1185.0
 30
0.0
 42
0.4142135623679944
  0
VERTEX
  5
1D2
  8
CUT-OUTSIDE-21MM
 10
32.33093063096464
 20
1181.9
 30
0.0
  0
VERTEX
  5
1D3
  8
CUT-OUTSIDE-21MM
 10
32.33093063096464
 20
68.1
 30
0.0
 42
0.4142135623730406
  0
VERTEX
  5
1D4
  8
CUT-OUTSIDE-21MM
 10
35.43093063096464
 20
65.0
 30
0.0
  0
SEQEND
  5
1D5
  8
CUT-OUTSIDE-21MM
  0
POLYLINE
  5
61
  8
CUT-OUTSIDE-21MM
 66
     1
 10
0.0
 20
0.0
 30
0.0
 70
     1
  0
VERTEX
  5
1D6
  8
CUT-OUTSIDE-21MM
 10
1156.391350271501
 20
176.9
 30
0.0
  0
VERTEX
  5
1D7
  8
CUT-OUTSIDE-21MM
 10
1156.391350271501
 20
3.100000000000001
 30
0.0
 42
0.4142135623723399
  0
VERTEX
  5
1D8
  8
CUT-OUTSIDE-21MM
 10
1159.491350271501
 20
0.0
 30
0.0
  0
VERTEX
  5
1D9
  8
CUT-OUTSIDE-21MM
 10
2303.691350271501
 20
0.0
 30
0.0
 42
0.4142135623607836
  0
VERTEX
  5
1DA
  8
CUT-OUTSIDE-21MM
 10
2306.791350271501
 20
3.100000000000001
 30
0.0
  0
VERTEX
  5
1DB
  8
CUT-OUTSIDE-21MM
 10
2306.791350271501
 20
796.9
 30
0.0
 42
0.4142135623465633
  0
VERTEX
  5
1DC
  8
CUT-OUTSIDE-21MM
 10
2303.691350271501
 20
800.0
 30
0.0
  0
VERTEX
  5
1DD
  8
CUT-OUTSIDE-21MM
 10
2109.891350271501
 20
800.0
 30
0.0
 42
0.4142135623565384
  0
VERTEX
  5
1DE
  8
CUT-OUTSIDE-21MM
 10
2106.791350271501
 20
796.9
 30
0.0
  0
VERTEX
  5
1DF
  8
CUT-OUTSIDE-21MM
 10
2106.791350271501
 20
603.1
 30
0.0
 42
-0.4142135623922214
  0
VERTEX
  5
1E0
  8
CUT-OUTSIDE-21MM
 10
2103.691350271501
 20
600.0
 30
0.0
  0
VERTEX
  5
1E1
  8
CUT-OUTSIDE-21MM
 10
1159.491350271501
 20
600.0
 30
0.0
 42
0.4142135623710243
  0
VERTEX
  5
1E2
  8
CUT-OUTSIDE-21MM
 10
1156.391350271501
 20
596.9
 30
0.0
  0
VERTEX
  5
1E3
  8
CUT-OUTSIDE-21MM
 10
1156.391350271501
 20
423.1
 30
0.0
 42
0.4142135623742149
  0
VERTEX
  5
1E4
  8
CUT-OUTSIDE-21MM
 10
1159.491350271501
 20
420.0
 30
0.0
  0
VERTEX
  5
1E5
  8
CUT-OUTSIDE-21MM
 10
2103.691350271501
 20
420.0
 30
0.0
 42
-0.4142135624005646
  0
VERTEX
  5
1E6
  8
CUT-OUTSIDE-21MM
 10
2106.791350271501
 20
416.9
 30
0.0
  0
VERTEX
  5
1E7
  8
CUT-OUTSIDE-21MM
 10
2106.791350271501
 20
183.1
 30
0.0
 42
-0.4142135623896608
  0
VERTEX
  5
1E8
  8
CUT-OUTSIDE-21MM
 10
2103.691350271501
 20
180.0
 30
0.0
  0
VERTEX
  5
1E9
  8
CUT-OUTSIDE-21MM
 10
1159.491350271501
 20
180.0
 30
0.0
 42
0.4142135623730936
  0
SEQEND
  5
1EA
  8
CUT-OUTSIDE-21MM
  0
POLYLINE
  5
63
  8
STANDARD
 66
     1
 10
0.0
 20
0.0
 30
0.0
 70
     1
  0
VERTEX
  5
1EB
  8
STANDARD
 10
0.0
 20
0.0
 30
0.0
  0
VERTEX
  5
1EC
  8
STANDARD
 10
2500.0
 20
0.0
 30
0.0
  0
VERTEX
  5
1ED
  8
STANDARD
 10
2500.0
 20
1250.0
 30
0.0
  0
VERTEX
  5
1EE
  8
STANDARD
 10
0.0
 20
1250.0
 30
0.0
  0
SEQEND
  5
1EF
  8
STANDARD
  0
ENDSEC
  0
EOF
